# xmcd
#
# Track frame offsets: 
#        150
#        7158
#        31690
#        54088
#        74913
#        93310
#        117753
#        145295
#        160290
#        191808
#        208855
#
# Disc length: 3135 seconds
#
# Revision: 0
# Processed by: cddbd v1.5.2PL0 Copyright (c) Steve Scherf et al.
# Submitted via: ExactAudioCopy v1.0b3
#
DISCID=9d0c3d0b
DTITLE=Ngoc Son - Nhung Tinh Khuc Biet Ly
DYEAR=1992
DGENRE=
TTITLE0=Loi tam su
TTITLE1=Chuyen hen ho
TTITLE2=Chuyen hop tan
TTITLE3=Huyen thoai nguoi con gai
TTITLE4=Phuong buon
TTITLE5=Mo hoa
TTITLE6=Tinh dau tinh cuoi
TTITLE7=Co nho dem nao
TTITLE8=Loi thu xua
TTITLE9=Nang chieu
TTITLE10=Cho du co di noi dau
EXTD=
EXTT0=
EXTT1=
EXTT2=
EXTT3=
EXTT4=
EXTT5=
EXTT6=
EXTT7=
EXTT8=
EXTT9=
EXTT10=
PLAYORDER=
